PathFileType	4	(X/Y/Z)	C:/Users/opensim2020/Desktop/walking_exp_matlab/subject06_cal10_run.trc																																																																																																																																																	
DataRate	CameraRate	NumFrames	NumMarkers	Units	OrigDataRate	OrigDataStartFrame	OrigNumFrames																																																																																																																																													
100	100	4	49	mm	100	257	118																																																																																																																																													
Frame#	Time	LKNE			RTIB			RFRM			RWRA			LTHI			RKNE			RELB			RFHD			LWRA			RUPA			STRN			RASI			CLAV			RSHO			LASI			RTHI			RBHD			LBHD			C7			RWRB			RFIN			RTOE			LSHO			RBAK			LTIB			RANK			LFIN			LANK			RHEE			T10			LHEE			LTOE			LFHD			LPSI			RPSI			LUPA			LELB			LFRM			LWRB			*39			*40			*41			*42			*43			*44			*45			*46			*47			*48		
		X1	Y1	Z1	X2	Y2	Z2	X3	Y3	Z3	X4	Y4	Z4	X5	Y5	Z5	X6	Y6	Z6	X7	Y7	Z7	X8	Y8	Z8	X9	Y9	Z9	X10	Y10	Z10	X11	Y11	Z11	X12	Y12	Z12	X13	Y13	Z13	X14	Y14	Z14	X15	Y15	Z15	X16	Y16	Z16	X17	Y17	Z17	X18	Y18	Z18	X19	Y19	Z19	X20	Y20	Z20	X21	Y21	Z21	X22	Y22	Z22	X23	Y23	Z23	X24	Y24	Z24	X25	Y25	Z25	X26	Y26	Z26	X27	Y27	Z27	X28	Y28	Z28	X29	Y29	Z29	X30	Y30	Z30	X31	Y31	Z31	X32	Y32	Z32	X33	Y33	Z33	X34	Y34	Z34	X35	Y35	Z35	X36	Y36	Z36	X37	Y37	Z37	X38	Y38	Z38	X39	Y39	Z39	X40	Y40	Z40	X41	Y41	Z41	X42	Y42	Z42	X43	Y43	Z43	X44	Y44	Z44	X45	Y45	Z45	X46	Y46	Z46	X47	Y47	Z47	X48	Y48	Z48	X49	Y49	Z49
																																																																																																																																																				
89	0.88	1139.59302	521.4046	172.85532	1479.0824	358.75308	411.57928	1116.54285	1201.2926	524.79907	1248.05981	1189.99902	470.2897	1203.13074	674.66779	142.24486	1464.35974	622.97443	431.19171	1039.59241	1271.18896	529.42865	1369.2561	1686.8197	347.62183	1405.43042	1276.96924	152.53821	1099.20947	1359.33276	493.81433	1378.46301	1235.01599	294.8096	1323.51514	1009.83136	405.58994	1340.17212	1411.79688	285.65408	1251.2085	1458.24695	418.35016	1353.14697	978.16473	196.4846	1392.75269	724.1264	461.9791	1235.53894	1644.49915	334.78317	1245.67126	1645.25952	205.42183	1235.91809	1488.73669	255.40393	1232.18896	1134.94629	503.96808	1315.14673	1145.34216	500.67184	1635.96704	104.34968	344.76349	1314.65515	1456.63501	122.66361	1147.17859	1334.27551	299.78574	935.48248	361.33948	163.62907	1491.24487	178.51372	352.4632	1474.57532	1277.63354	215.94206	802.27313	252.87555	190.25592	1455.56836	170.10748	303.91898	1190.28198	1170.54382	254.57419	771.00177	289.78421	223.90536	803.6792	105.74396	240.13457	1381.08728	1692.90442	215.6913	1208.24646	1029.04468	191.31448	1184.65234	1039.88525	356.10519	1310.26135	1290.76062	12.58403	1297.96301	1190.68042	-31.09135	1385.75159	1187.02112	63.50016	1433.3667	1213.88879	167.24654	NaN	NaN	NaN	NaN	NaN	NaN	1278.71179	1739.02405	264.84793	NaN	NaN	NaN	NaN	NaN	NaN	NaN	NaN	NaN	NaN	NaN	NaN	NaN	NaN	NaN	NaN	NaN	NaN	NaN	NaN	NaN
90	0.89	1184.61658	521.37274	172.4052	1523.54285	352.72537	410.25662	1154.19409	1201.21252	523.79321	1286.58545	1191.17725	471.00217	1247.29187	675.23749	142.29257	1497.85303	615.47009	429.70865	1076.53027	1270.37378	527.9104	1407.69189	1687.97229	349.94644	1444.16199	1278.68201	154.16563	1136.14307	1358.61267	493.17065	1418.08362	1236.49158	295.83701	1364.16113	1008.56641	407.13495	1378.63599	1413.31287	287.27393	1288.60986	1458.66992	419.96255	1394.19885	980.10052	196.51463	1428.69946	716.91351	462.35229	1274.03455	1645.65625	336.87302	1284.22607	1646.94434	207.61771	1274.72302	1490.2843	256.85501	1270.64075	1135.59705	503.80402	1353.62659	1146.4021	501.67133	1694.59656	103.86478	342.61935	1353.45764	1457.80042	123.58506	1186.15515	1333.27881	300.26202	975.50549	368.00009	163.01221	1546.99915	174.75363	353.17944	1513.02283	1280.17834	217.85991	838.22278	263.60199	189.15508	1511.62732	165.60626	304.63568	1230.45618	1170.43188	256.05405	807.72198	299.79523	224.52376	841.24554	115.53699	234.49805	1419.6095	1694.53784	218.04286	1247.60645	1029.62793	193.33192	1224.68311	1038.54639	357.91782	1350.26221	1291.1272	13.74082	1338.38	1191.38696	-30.36078	1425.47522	1188.44568	65.2836	1472.46082	1215.83936	169.29289	NaN	NaN	NaN	NaN	NaN	NaN	1317.24365	1740.5249	267.40033	NaN	NaN	NaN	NaN	NaN	NaN	NaN	NaN	NaN	NaN	NaN	NaN	NaN	NaN	NaN	NaN	NaN	NaN	NaN	NaN	NaN
91	0.9	1230.41125	520.53033	171.21518	1566.1936	346.64679	408.72476	1192.94897	1199.5033	523.05383	1326.21436	1190.8269	472.06671	1291.69299	675.23621	142.12628	1531.40918	607.62427	428.17734	1114.49451	1268.12048	526.87305	1445.69067	1688.18286	351.90247	1483.33093	1278.43506	155.70041	1173.92627	1356.80396	492.71683	1457.47559	1237.09778	296.65027	1405.38574	1006.90424	407.97815	1417.15698	1413.84534	288.75522	1326.36194	1458.31262	421.64032	1435.11584	981.48401	196.18178	1463.77087	709.48969	463.45313	1312.03699	1645.78027	338.63095	1322.67871	1647.54407	209.72401	1313.67871	1491.06934	258.46521	1309.99292	1134.60291	503.64508	1393.11389	1145.8186	502.83002	1749.51318	103.61407	339.23853	1392.54614	1457.87744	124.48158	1224.92273	1331.73242	301.47644	1016.89673	373.90869	162.25607	1599.13049	170.83345	353.5105	1552.0127	1280.28894	219.65927	876.45703	273.10904	187.99078	1563.88611	160.27597	305.97162	1272.97461	1168.8866	257.05911	846.91455	308.60046	225.30109	880.31317	124.15364	228.2101	1458.05444	1695.20703	220.51619	1286.7301	1029.19214	195.21443	1265.55701	1037.03162	360.18423	1390.0791	1290.4436	14.59666	1378.09546	1190.93286	-29.54778	1465.01965	1188.30798	66.72575	1511.71936	1215.66199	171.07849	NaN	NaN	NaN	NaN	NaN	NaN	1355.5415	1741.01331	269.79324	NaN	NaN	NaN	NaN	NaN	NaN	NaN	NaN	NaN	NaN	NaN	NaN	NaN	NaN	NaN	NaN	NaN	NaN	NaN	NaN	NaN
92	0.91	1277.24561	518.58972	169.40561	1607.79993	341.18735	408.25009	1232.63745	1195.96899	522.65314	1366.53613	1188.83569	473.18216	1336.0293	674.35681	141.50082	1565.52954	599.91235	426.74301	1153.80688	1264.22266	526.20276	1483.9231	1687.2074	354.51035	1522.82129	1276.28955	157.37354	1212.4624	1353.94751	492.70319	1496.78271	1236.84509	297.58337	1447.04773	1005.20898	407.88187	1455.61646	1413.29517	290.15894	1364.51221	1456.92065	423.30569	1475.67871	982.1369	195.66838	1497.70996	701.3418	463.52493	1350.13757	1644.95239	340.75375	1360.93323	1647.10474	211.8148	1352.3949	1490.62952	259.85724	1350.65613	1132.1228	503.94592	1433.54932	1143.60352	503.89539	1799.2959	102.47902	335.46835	1431.69531	1456.89587	125.4183	1263.52979	1329.70105	303.24939	1059.46521	379.24466	161.80371	1647.23901	166.21794	352.87137	1591.55579	1277.9093	221.39804	916.63556	281.43057	186.83629	1611.84045	154.82022	307.1264	1308.01477	1167.13416	258.93317	887.44073	315.85226	225.82417	922.17059	131.70728	221.47046	1496.34302	1694.78186	222.94414	1326.03052	1027.88391	196.6911	1306.41541	1035.17029	361.76971	1429.48901	1288.91028	15.40911	1417.28467	1189.56604	-28.60915	1503.93762	1186.78015	68.04173	1551.16541	1213.54163	172.46303	NaN	NaN	NaN	NaN	NaN	NaN	1393.70508	1740.39722	272.21356	NaN	NaN	NaN	NaN	NaN	NaN	NaN	NaN	NaN	NaN	NaN	NaN	NaN	NaN	NaN	NaN	NaN	NaN	NaN	NaN	NaN
